solid OpenSCAD_Model
  facet normal 0.99863 0.0523352 0
    outer loop
      vertex 10 0 5
      vertex 9.94522 1.04528 -5
      vertex 9.94522 1.04528 5
    endloop
  endfacet
  facet normal 0.99863 0.0523352 0
    outer loop
      vertex 9.94522 1.04528 -5
      vertex 10 0 5
      vertex 10 0 -5
    endloop
  endfacet
  facet normal -0.99863 0.0523352 0
    outer loop
      vertex -10 0 -5
      vertex -9.94522 1.04528 5
      vertex -9.94522 1.04528 -5
    endloop
  endfacet
  facet normal -0.99863 0.0523352 0
    outer loop
      vertex -9.94522 1.04528 5
      vertex -10 0 -5
      vertex -10 0 5
    endloop
  endfacet
  facet normal 0.0523352 0.99863 -0
    outer loop
      vertex 1.04528 9.94522 -5
      vertex 0 10 5
      vertex 1.04528 9.94522 5
    endloop
  endfacet
  facet normal 0.0523352 0.99863 0
    outer loop
      vertex 0 10 5
      vertex 1.04528 9.94522 -5
      vertex 0 10 -5
    endloop
  endfacet
  facet normal -0.0523352 -0.99863 0
    outer loop
      vertex -1.04528 -9.94522 -5
      vertex 0 -10 5
      vertex -1.04528 -9.94522 5
    endloop
  endfacet
  facet normal -0.0523352 -0.99863 -0
    outer loop
      vertex 0 -10 5
      vertex -1.04528 -9.94522 -5
      vertex 0 -10 -5
    endloop
  endfacet
  facet normal -0.777149 -0.629316 0
    outer loop
      vertex -7.43145 -6.69131 -5
      vertex -8.09017 -5.87785 5
      vertex -8.09017 -5.87785 -5
    endloop
  endfacet
  facet normal -0.777149 -0.629316 0
    outer loop
      vertex -8.09017 -5.87785 5
      vertex -7.43145 -6.69131 -5
      vertex -7.43145 -6.69131 5
    endloop
  endfacet
  facet normal 0.707107 0.707107 0
    outer loop
      vertex 7.43145 6.69131 5
      vertex 6.69131 7.43145 -5
      vertex 6.69131 7.43145 5
    endloop
  endfacet
  facet normal 0.707107 0.707107 0
    outer loop
      vertex 6.69131 7.43145 -5
      vertex 7.43145 6.69131 5
      vertex 7.43145 6.69131 -5
    endloop
  endfacet
  facet normal -0.629316 0.777149 0
    outer loop
      vertex -5.87785 8.09017 -5
      vertex -6.69131 7.43145 5
      vertex -5.87785 8.09017 5
    endloop
  endfacet
  facet normal -0.629316 0.777149 0
    outer loop
      vertex -6.69131 7.43145 5
      vertex -5.87785 8.09017 -5
      vertex -6.69131 7.43145 -5
    endloop
  endfacet
  facet normal -0.258828 0.965923 0
    outer loop
      vertex -2.07912 9.78148 -5
      vertex -3.09017 9.51056 5
      vertex -2.07912 9.78148 5
    endloop
  endfacet
  facet normal -0.258828 0.965923 0
    outer loop
      vertex -3.09017 9.51056 5
      vertex -2.07912 9.78148 -5
      vertex -3.09017 9.51056 -5
    endloop
  endfacet
  facet normal 0.891006 0.453991 0
    outer loop
      vertex 9.13545 4.06737 5
      vertex 8.66025 5 -5
      vertex 8.66025 5 5
    endloop
  endfacet
  facet normal 0.891006 0.453991 0
    outer loop
      vertex 8.66025 5 -5
      vertex 9.13545 4.06737 5
      vertex 9.13545 4.06737 -5
    endloop
  endfacet
  facet normal 0.838672 0.544637 0
    outer loop
      vertex 8.66025 5 5
      vertex 8.09017 5.87785 -5
      vertex 8.09017 5.87785 5
    endloop
  endfacet
  facet normal 0.838672 0.544637 0
    outer loop
      vertex 8.09017 5.87785 -5
      vertex 8.66025 5 5
      vertex 8.66025 5 -5
    endloop
  endfacet
  facet normal 0.358366 0.933581 -0
    outer loop
      vertex 4.06737 9.13545 -5
      vertex 3.09017 9.51056 5
      vertex 4.06737 9.13545 5
    endloop
  endfacet
  facet normal 0.358366 0.933581 0
    outer loop
      vertex 3.09017 9.51056 5
      vertex 4.06737 9.13545 -5
      vertex 3.09017 9.51056 -5
    endloop
  endfacet
  facet normal 0.258828 0.965923 -0
    outer loop
      vertex 3.09017 9.51056 -5
      vertex 2.07912 9.78148 5
      vertex 3.09017 9.51056 5
    endloop
  endfacet
  facet normal 0.258828 0.965923 0
    outer loop
      vertex 2.07912 9.78148 5
      vertex 3.09017 9.51056 -5
      vertex 2.07912 9.78148 -5
    endloop
  endfacet
  facet normal 0.544637 0.838672 -0
    outer loop
      vertex 5.87785 8.09017 -5
      vertex 5 8.66025 5
      vertex 5.87785 8.09017 5
    endloop
  endfacet
  facet normal 0.544637 0.838672 0
    outer loop
      vertex 5 8.66025 5
      vertex 5.87785 8.09017 -5
      vertex 5 8.66025 -5
    endloop
  endfacet
  facet normal -0.891006 0.453991 0
    outer loop
      vertex -9.13545 4.06737 -5
      vertex -8.66025 5 5
      vertex -8.66025 5 -5
    endloop
  endfacet
  facet normal -0.891006 0.453991 0
    outer loop
      vertex -8.66025 5 5
      vertex -9.13545 4.06737 -5
      vertex -9.13545 4.06737 5
    endloop
  endfacet
  facet normal -0.156431 0.987689 0
    outer loop
      vertex -1.04528 9.94522 -5
      vertex -2.07912 9.78148 5
      vertex -1.04528 9.94522 5
    endloop
  endfacet
  facet normal -0.156431 0.987689 0
    outer loop
      vertex -2.07912 9.78148 5
      vertex -1.04528 9.94522 -5
      vertex -2.07912 9.78148 -5
    endloop
  endfacet
  facet normal 0 0 -1
    outer loop
      vertex 3.15 0 -5
      vertex 10 0 -5
      vertex 9.94522 -1.04528 -5
    endloop
  endfacet
  facet normal 0 0 -1
    outer loop
      vertex 3.08116 -0.654922 -5
      vertex 9.94522 -1.04528 -5
      vertex 9.78148 -2.07912 -5
    endloop
  endfacet
  facet normal 0 0 -1
    outer loop
      vertex 10 0 -5
      vertex 3.15 0 -5
      vertex 9.94522 1.04528 -5
    endloop
  endfacet
  facet normal 0 0 -1
    outer loop
      vertex 3.08116 -0.654922 -5
      vertex 9.78148 -2.07912 -5
      vertex 9.51056 -3.09017 -5
    endloop
  endfacet
  facet normal 0 0 -1
    outer loop
      vertex 3.08116 0.654922 -5
      vertex 9.94522 1.04528 -5
      vertex 3.15 0 -5
    endloop
  endfacet
  facet normal 0 0 -1
    outer loop
      vertex 2.87767 -1.28122 -5
      vertex 9.51056 -3.09017 -5
      vertex 9.13545 -4.06737 -5
    endloop
  endfacet
  facet normal -0 0 -1
    outer loop
      vertex 9.94522 1.04528 -5
      vertex 3.08116 0.654922 -5
      vertex 9.78148 2.07912 -5
    endloop
  endfacet
  facet normal 0 0 -1
    outer loop
      vertex 2.87767 -1.28122 -5
      vertex 9.13545 -4.06737 -5
      vertex 8.66025 -5 -5
    endloop
  endfacet
  facet normal -0 0 -1
    outer loop
      vertex 9.78148 2.07912 -5
      vertex 3.08116 0.654922 -5
      vertex 9.51056 3.09017 -5
    endloop
  endfacet
  facet normal 0 0 -1
    outer loop
      vertex 2.5484 -1.85152 -5
      vertex 8.66025 -5 -5
      vertex 8.09017 -5.87785 -5
    endloop
  endfacet
  facet normal 0 0 -1
    outer loop
      vertex 2.87767 1.28122 -5
      vertex 9.51056 3.09017 -5
      vertex 3.08116 0.654922 -5
    endloop
  endfacet
  facet normal 0 0 -1
    outer loop
      vertex 2.5484 -1.85152 -5
      vertex 8.09017 -5.87785 -5
      vertex 7.43145 -6.69131 -5
    endloop
  endfacet
  facet normal -0 0 -1
    outer loop
      vertex 9.51056 3.09017 -5
      vertex 2.87767 1.28122 -5
      vertex 9.13545 4.06737 -5
    endloop
  endfacet
  facet normal 0 0 -1
    outer loop
      vertex 2.10776 -2.34091 -5
      vertex 7.43145 -6.69131 -5
      vertex 6.69131 -7.43145 -5
    endloop
  endfacet
  facet normal -0 0 -1
    outer loop
      vertex 9.13545 4.06737 -5
      vertex 2.87767 1.28122 -5
      vertex 8.66025 5 -5
    endloop
  endfacet
  facet normal 0 0 -1
    outer loop
      vertex 2.10776 -2.34091 -5
      vertex 6.69131 -7.43145 -5
      vertex 5.87785 -8.09017 -5
    endloop
  endfacet
  facet normal 0 0 -1
    outer loop
      vertex 2.5484 1.85152 -5
      vertex 8.66025 5 -5
      vertex 2.87767 1.28122 -5
    endloop
  endfacet
  facet normal 0 0 -1
    outer loop
      vertex 1.575 -2.72798 -5
      vertex 5.87785 -8.09017 -5
      vertex 5 -8.66025 -5
    endloop
  endfacet
  facet normal -0 0 -1
    outer loop
      vertex 8.66025 5 -5
      vertex 2.5484 1.85152 -5
      vertex 8.09017 5.87785 -5
    endloop
  endfacet
  facet normal 0 0 -1
    outer loop
      vertex 1.575 -2.72798 -5
      vertex 5 -8.66025 -5
      vertex 4.06737 -9.13545 -5
    endloop
  endfacet
  facet normal -0 0 -1
    outer loop
      vertex 8.09017 5.87785 -5
      vertex 2.5484 1.85152 -5
      vertex 7.43145 6.69131 -5
    endloop
  endfacet
  facet normal 0 0 -1
    outer loop
      vertex 2.10776 2.34091 -5
      vertex 7.43145 6.69131 -5
      vertex 2.5484 1.85152 -5
    endloop
  endfacet
  facet normal 0 0 -1
    outer loop
      vertex 0.973403 -2.99583 -5
      vertex 4.06737 -9.13545 -5
      vertex 3.09017 -9.51056 -5
    endloop
  endfacet
  facet normal 0 0 -1
    outer loop
      vertex 9.94522 -1.04528 -5
      vertex 3.08116 -0.654922 -5
      vertex 3.15 0 -5
    endloop
  endfacet
  facet normal 0 0 -1
    outer loop
      vertex 9.51056 -3.09017 -5
      vertex 2.87767 -1.28122 -5
      vertex 3.08116 -0.654922 -5
    endloop
  endfacet
  facet normal 0 0 -1
    outer loop
      vertex 8.66025 -5 -5
      vertex 2.5484 -1.85152 -5
      vertex 2.87767 -1.28122 -5
    endloop
  endfacet
  facet normal 0 0 -1
    outer loop
      vertex 7.43145 -6.69131 -5
      vertex 2.10776 -2.34091 -5
      vertex 2.5484 -1.85152 -5
    endloop
  endfacet
  facet normal 0 0 -1
    outer loop
      vertex 0.973403 -2.99583 -5
      vertex 3.09017 -9.51056 -5
      vertex 2.07912 -9.78148 -5
    endloop
  endfacet
  facet normal 0 0 -1
    outer loop
      vertex 5.87785 -8.09017 -5
      vertex 1.575 -2.72798 -5
      vertex 2.10776 -2.34091 -5
    endloop
  endfacet
  facet normal 0 0 -1
    outer loop
      vertex 0.329265 -3.13274 -5
      vertex 2.07912 -9.78148 -5
      vertex 1.04528 -9.94522 -5
    endloop
  endfacet
  facet normal 0 0 -1
    outer loop
      vertex 4.06737 -9.13545 -5
      vertex 0.973403 -2.99583 -5
      vertex 1.575 -2.72798 -5
    endloop
  endfacet
  facet normal 0 0 -1
    outer loop
      vertex 2.07912 -9.78148 -5
      vertex 0.329265 -3.13274 -5
      vertex 0.973403 -2.99583 -5
    endloop
  endfacet
  facet normal 0 0 -1
    outer loop
      vertex 0 -10 -5
      vertex 0.329265 -3.13274 -5
      vertex 1.04528 -9.94522 -5
    endloop
  endfacet
  facet normal 0 0 -1
    outer loop
      vertex 0 -10 -5
      vertex -0.329265 -3.13274 -5
      vertex 0.329265 -3.13274 -5
    endloop
  endfacet
  facet normal 0 0 -1
    outer loop
      vertex -1.04528 -9.94522 -5
      vertex -0.329265 -3.13274 -5
      vertex 0 -10 -5
    endloop
  endfacet
  facet normal 0 0 -1
    outer loop
      vertex -2.07912 -9.78148 -5
      vertex -0.329265 -3.13274 -5
      vertex -1.04528 -9.94522 -5
    endloop
  endfacet
  facet normal -0 0 -1
    outer loop
      vertex -0.329265 -3.13274 -5
      vertex -2.07912 -9.78148 -5
      vertex -0.973403 -2.99583 -5
    endloop
  endfacet
  facet normal 0 0 -1
    outer loop
      vertex -3.09017 -9.51056 -5
      vertex -0.973403 -2.99583 -5
      vertex -2.07912 -9.78148 -5
    endloop
  endfacet
  facet normal 0 0 -1
    outer loop
      vertex -4.06737 -9.13545 -5
      vertex -0.973403 -2.99583 -5
      vertex -3.09017 -9.51056 -5
    endloop
  endfacet
  facet normal -0 0 -1
    outer loop
      vertex -0.973403 -2.99583 -5
      vertex -4.06737 -9.13545 -5
      vertex -1.575 -2.72798 -5
    endloop
  endfacet
  facet normal 0 0 -1
    outer loop
      vertex -5 -8.66025 -5
      vertex -1.575 -2.72798 -5
      vertex -4.06737 -9.13545 -5
    endloop
  endfacet
  facet normal 0 0 -1
    outer loop
      vertex -5.87785 -8.09017 -5
      vertex -1.575 -2.72798 -5
      vertex -5 -8.66025 -5
    endloop
  endfacet
  facet normal -0 0 -1
    outer loop
      vertex -1.575 -2.72798 -5
      vertex -5.87785 -8.09017 -5
      vertex -2.10776 -2.34091 -5
    endloop
  endfacet
  facet normal 0 0 -1
    outer loop
      vertex -6.69131 -7.43145 -5
      vertex -2.10776 -2.34091 -5
      vertex -5.87785 -8.09017 -5
    endloop
  endfacet
  facet normal 0 0 -1
    outer loop
      vertex -7.43145 -6.69131 -5
      vertex -2.10776 -2.34091 -5
      vertex -6.69131 -7.43145 -5
    endloop
  endfacet
  facet normal -0 0 -1
    outer loop
      vertex 7.43145 6.69131 -5
      vertex 2.10776 2.34091 -5
      vertex 6.69131 7.43145 -5
    endloop
  endfacet
  facet normal -0 0 -1
    outer loop
      vertex 6.69131 7.43145 -5
      vertex 2.10776 2.34091 -5
      vertex 5.87785 8.09017 -5
    endloop
  endfacet
  facet normal 0 0 -1
    outer loop
      vertex 1.575 2.72798 -5
      vertex 5.87785 8.09017 -5
      vertex 2.10776 2.34091 -5
    endloop
  endfacet
  facet normal -0 0 -1
    outer loop
      vertex 5.87785 8.09017 -5
      vertex 1.575 2.72798 -5
      vertex 5 8.66025 -5
    endloop
  endfacet
  facet normal -0 0 -1
    outer loop
      vertex 5 8.66025 -5
      vertex 1.575 2.72798 -5
      vertex 4.06737 9.13545 -5
    endloop
  endfacet
  facet normal 0 0 -1
    outer loop
      vertex 0.973403 2.99583 -5
      vertex 4.06737 9.13545 -5
      vertex 1.575 2.72798 -5
    endloop
  endfacet
  facet normal -0 0 -1
    outer loop
      vertex 4.06737 9.13545 -5
      vertex 0.973403 2.99583 -5
      vertex 3.09017 9.51056 -5
    endloop
  endfacet
  facet normal -0 0 -1
    outer loop
      vertex 3.09017 9.51056 -5
      vertex 0.973403 2.99583 -5
      vertex 2.07912 9.78148 -5
    endloop
  endfacet
  facet normal 0 0 -1
    outer loop
      vertex 0.329265 3.13274 -5
      vertex 2.07912 9.78148 -5
      vertex 0.973403 2.99583 -5
    endloop
  endfacet
  facet normal -0 0 -1
    outer loop
      vertex 2.07912 9.78148 -5
      vertex 0.329265 3.13274 -5
      vertex 1.04528 9.94522 -5
    endloop
  endfacet
  facet normal 0 0 -1
    outer loop
      vertex 0.329265 3.13274 -5
      vertex 0 10 -5
      vertex 1.04528 9.94522 -5
    endloop
  endfacet
  facet normal 0 0 -1
    outer loop
      vertex -0.329265 3.13274 -5
      vertex 0 10 -5
      vertex 0.329265 3.13274 -5
    endloop
  endfacet
  facet normal 0 0 -1
    outer loop
      vertex -2.07912 9.78148 -5
      vertex -0.329265 3.13274 -5
      vertex -0.973403 2.99583 -5
    endloop
  endfacet
  facet normal 0 0 -1
    outer loop
      vertex -0.329265 3.13274 -5
      vertex -1.04528 9.94522 -5
      vertex 0 10 -5
    endloop
  endfacet
  facet normal 0 0 -1
    outer loop
      vertex -4.06737 9.13545 -5
      vertex -0.973403 2.99583 -5
      vertex -1.575 2.72798 -5
    endloop
  endfacet
  facet normal 0 0 -1
    outer loop
      vertex -0.329265 3.13274 -5
      vertex -2.07912 9.78148 -5
      vertex -1.04528 9.94522 -5
    endloop
  endfacet
  facet normal 0 0 -1
    outer loop
      vertex -5.87785 8.09017 -5
      vertex -1.575 2.72798 -5
      vertex -2.10776 2.34091 -5
    endloop
  endfacet
  facet normal 0 0 -1
    outer loop
      vertex -7.43145 6.69131 -5
      vertex -2.10776 2.34091 -5
      vertex -2.5484 1.85152 -5
    endloop
  endfacet
  facet normal 0 0 -1
    outer loop
      vertex -8.66025 5 -5
      vertex -2.5484 1.85152 -5
      vertex -2.87767 1.28122 -5
    endloop
  endfacet
  facet normal 0 0 -1
    outer loop
      vertex -9.51056 3.09017 -5
      vertex -2.87767 1.28122 -5
      vertex -3.08116 0.654922 -5
    endloop
  endfacet
  facet normal 0 0 -1
    outer loop
      vertex -0.973403 2.99583 -5
      vertex -3.09017 9.51056 -5
      vertex -2.07912 9.78148 -5
    endloop
  endfacet
  facet normal 0 0 -1
    outer loop
      vertex -9.94522 1.04528 -5
      vertex -3.08116 0.654922 -5
      vertex -3.15 0 -5
    endloop
  endfacet
  facet normal -0 0 -1
    outer loop
      vertex -2.10776 -2.34091 -5
      vertex -7.43145 -6.69131 -5
      vertex -2.5484 -1.85152 -5
    endloop
  endfacet
  facet normal 0 0 -1
    outer loop
      vertex -0.973403 2.99583 -5
      vertex -4.06737 9.13545 -5
      vertex -3.09017 9.51056 -5
    endloop
  endfacet
  facet normal 0 0 -1
    outer loop
      vertex -8.09017 -5.87785 -5
      vertex -2.5484 -1.85152 -5
      vertex -7.43145 -6.69131 -5
    endloop
  endfacet
  facet normal 0 0 -1
    outer loop
      vertex -1.575 2.72798 -5
      vertex -5 8.66025 -5
      vertex -4.06737 9.13545 -5
    endloop
  endfacet
  facet normal 0 0 -1
    outer loop
      vertex -8.66025 -5 -5
      vertex -2.5484 -1.85152 -5
      vertex -8.09017 -5.87785 -5
    endloop
  endfacet
  facet normal 0 0 -1
    outer loop
      vertex -1.575 2.72798 -5
      vertex -5.87785 8.09017 -5
      vertex -5 8.66025 -5
    endloop
  endfacet
  facet normal -0 0 -1
    outer loop
      vertex -2.5484 -1.85152 -5
      vertex -8.66025 -5 -5
      vertex -2.87767 -1.28122 -5
    endloop
  endfacet
  facet normal 0 0 -1
    outer loop
      vertex -2.10776 2.34091 -5
      vertex -6.69131 7.43145 -5
      vertex -5.87785 8.09017 -5
    endloop
  endfacet
  facet normal 0 0 -1
    outer loop
      vertex -9.13545 -4.06737 -5
      vertex -2.87767 -1.28122 -5
      vertex -8.66025 -5 -5
    endloop
  endfacet
  facet normal 0 0 -1
    outer loop
      vertex -2.10776 2.34091 -5
      vertex -7.43145 6.69131 -5
      vertex -6.69131 7.43145 -5
    endloop
  endfacet
  facet normal 0 0 -1
    outer loop
      vertex -9.51056 -3.09017 -5
      vertex -2.87767 -1.28122 -5
      vertex -9.13545 -4.06737 -5
    endloop
  endfacet
  facet normal 0 0 -1
    outer loop
      vertex -2.5484 1.85152 -5
      vertex -8.09017 5.87785 -5
      vertex -7.43145 6.69131 -5
    endloop
  endfacet
  facet normal -0 0 -1
    outer loop
      vertex -2.87767 -1.28122 -5
      vertex -9.51056 -3.09017 -5
      vertex -3.08116 -0.654922 -5
    endloop
  endfacet
  facet normal 0 0 -1
    outer loop
      vertex -2.5484 1.85152 -5
      vertex -8.66025 5 -5
      vertex -8.09017 5.87785 -5
    endloop
  endfacet
  facet normal 0 0 -1
    outer loop
      vertex -9.78148 -2.07912 -5
      vertex -3.08116 -0.654922 -5
      vertex -9.51056 -3.09017 -5
    endloop
  endfacet
  facet normal 0 0 -1
    outer loop
      vertex -2.87767 1.28122 -5
      vertex -9.13545 4.06737 -5
      vertex -8.66025 5 -5
    endloop
  endfacet
  facet normal 0 0 -1
    outer loop
      vertex -9.94522 -1.04528 -5
      vertex -3.08116 -0.654922 -5
      vertex -9.78148 -2.07912 -5
    endloop
  endfacet
  facet normal 0 0 -1
    outer loop
      vertex -2.87767 1.28122 -5
      vertex -9.51056 3.09017 -5
      vertex -9.13545 4.06737 -5
    endloop
  endfacet
  facet normal -0 0 -1
    outer loop
      vertex -3.08116 -0.654922 -5
      vertex -9.94522 -1.04528 -5
      vertex -3.15 0 -5
    endloop
  endfacet
  facet normal 0 0 -1
    outer loop
      vertex -3.08116 0.654922 -5
      vertex -9.78148 2.07912 -5
      vertex -9.51056 3.09017 -5
    endloop
  endfacet
  facet normal 0 0 -1
    outer loop
      vertex -10 0 -5
      vertex -3.15 0 -5
      vertex -9.94522 -1.04528 -5
    endloop
  endfacet
  facet normal 0 0 -1
    outer loop
      vertex -3.08116 0.654922 -5
      vertex -9.94522 1.04528 -5
      vertex -9.78148 2.07912 -5
    endloop
  endfacet
  facet normal 0 0 -1
    outer loop
      vertex -3.15 0 -5
      vertex -10 0 -5
      vertex -9.94522 1.04528 -5
    endloop
  endfacet
  facet normal 0.965923 0.258828 0
    outer loop
      vertex 9.78148 2.07912 5
      vertex 9.51056 3.09017 -5
      vertex 9.51056 3.09017 5
    endloop
  endfacet
  facet normal 0.965923 0.258828 0
    outer loop
      vertex 9.51056 3.09017 -5
      vertex 9.78148 2.07912 5
      vertex 9.78148 2.07912 -5
    endloop
  endfacet
  facet normal 0.987689 0.156431 0
    outer loop
      vertex 9.94522 1.04528 5
      vertex 9.78148 2.07912 -5
      vertex 9.78148 2.07912 5
    endloop
  endfacet
  facet normal 0.987689 0.156431 0
    outer loop
      vertex 9.78148 2.07912 -5
      vertex 9.94522 1.04528 5
      vertex 9.94522 1.04528 -5
    endloop
  endfacet
  facet normal 0.933581 0.358366 0
    outer loop
      vertex 9.51056 3.09017 5
      vertex 9.13545 4.06737 -5
      vertex 9.13545 4.06737 5
    endloop
  endfacet
  facet normal 0.933581 0.358366 0
    outer loop
      vertex 9.13545 4.06737 -5
      vertex 9.51056 3.09017 5
      vertex 9.51056 3.09017 -5
    endloop
  endfacet
  facet normal 0.777149 0.629316 0
    outer loop
      vertex 8.09017 5.87785 5
      vertex 7.43145 6.69131 -5
      vertex 7.43145 6.69131 5
    endloop
  endfacet
  facet normal 0.777149 0.629316 0
    outer loop
      vertex 7.43145 6.69131 -5
      vertex 8.09017 5.87785 5
      vertex 8.09017 5.87785 -5
    endloop
  endfacet
  facet normal 0.156431 0.987689 -0
    outer loop
      vertex 2.07912 9.78148 -5
      vertex 1.04528 9.94522 5
      vertex 2.07912 9.78148 5
    endloop
  endfacet
  facet normal 0.156431 0.987689 0
    outer loop
      vertex 1.04528 9.94522 5
      vertex 2.07912 9.78148 -5
      vertex 1.04528 9.94522 -5
    endloop
  endfacet
  facet normal 0.453991 0.891006 -0
    outer loop
      vertex 5 8.66025 -5
      vertex 4.06737 9.13545 5
      vertex 5 8.66025 5
    endloop
  endfacet
  facet normal 0.453991 0.891006 0
    outer loop
      vertex 4.06737 9.13545 5
      vertex 5 8.66025 -5
      vertex 4.06737 9.13545 -5
    endloop
  endfacet
  facet normal 0.629316 0.777149 -0
    outer loop
      vertex 6.69131 7.43145 -5
      vertex 5.87785 8.09017 5
      vertex 6.69131 7.43145 5
    endloop
  endfacet
  facet normal 0.629316 0.777149 0
    outer loop
      vertex 5.87785 8.09017 5
      vertex 6.69131 7.43145 -5
      vertex 5.87785 8.09017 -5
    endloop
  endfacet
  facet normal -0.965923 0.258828 0
    outer loop
      vertex -9.78148 2.07912 -5
      vertex -9.51056 3.09017 5
      vertex -9.51056 3.09017 -5
    endloop
  endfacet
  facet normal -0.965923 0.258828 0
    outer loop
      vertex -9.51056 3.09017 5
      vertex -9.78148 2.07912 -5
      vertex -9.78148 2.07912 5
    endloop
  endfacet
  facet normal -0.777149 0.629316 0
    outer loop
      vertex -8.09017 5.87785 -5
      vertex -7.43145 6.69131 5
      vertex -7.43145 6.69131 -5
    endloop
  endfacet
  facet normal -0.777149 0.629316 0
    outer loop
      vertex -7.43145 6.69131 5
      vertex -8.09017 5.87785 -5
      vertex -8.09017 5.87785 5
    endloop
  endfacet
  facet normal -0.707107 0.707107 0
    outer loop
      vertex -7.43145 6.69131 -5
      vertex -6.69131 7.43145 5
      vertex -6.69131 7.43145 -5
    endloop
  endfacet
  facet normal -0.707107 0.707107 0
    outer loop
      vertex -6.69131 7.43145 5
      vertex -7.43145 6.69131 -5
      vertex -7.43145 6.69131 5
    endloop
  endfacet
  facet normal -0.838672 0.544637 0
    outer loop
      vertex -8.66025 5 -5
      vertex -8.09017 5.87785 5
      vertex -8.09017 5.87785 -5
    endloop
  endfacet
  facet normal -0.838672 0.544637 0
    outer loop
      vertex -8.09017 5.87785 5
      vertex -8.66025 5 -5
      vertex -8.66025 5 5
    endloop
  endfacet
  facet normal -0.933581 0.358366 0
    outer loop
      vertex -9.51056 3.09017 -5
      vertex -9.13545 4.06737 5
      vertex -9.13545 4.06737 -5
    endloop
  endfacet
  facet normal -0.933581 0.358366 0
    outer loop
      vertex -9.13545 4.06737 5
      vertex -9.51056 3.09017 -5
      vertex -9.51056 3.09017 5
    endloop
  endfacet
  facet normal -0.987689 0.156431 0
    outer loop
      vertex -9.94522 1.04528 -5
      vertex -9.78148 2.07912 5
      vertex -9.78148 2.07912 -5
    endloop
  endfacet
  facet normal -0.987689 0.156431 0
    outer loop
      vertex -9.78148 2.07912 5
      vertex -9.94522 1.04528 -5
      vertex -9.94522 1.04528 5
    endloop
  endfacet
  facet normal -0.453991 0.891006 0
    outer loop
      vertex -4.06737 9.13545 -5
      vertex -5 8.66025 5
      vertex -4.06737 9.13545 5
    endloop
  endfacet
  facet normal -0.453991 0.891006 0
    outer loop
      vertex -5 8.66025 5
      vertex -4.06737 9.13545 -5
      vertex -5 8.66025 -5
    endloop
  endfacet
  facet normal -0.358366 0.933581 0
    outer loop
      vertex -3.09017 9.51056 -5
      vertex -4.06737 9.13545 5
      vertex -3.09017 9.51056 5
    endloop
  endfacet
  facet normal -0.358366 0.933581 0
    outer loop
      vertex -4.06737 9.13545 5
      vertex -3.09017 9.51056 -5
      vertex -4.06737 9.13545 -5
    endloop
  endfacet
  facet normal -0.544637 0.838672 0
    outer loop
      vertex -5 8.66025 -5
      vertex -5.87785 8.09017 5
      vertex -5 8.66025 5
    endloop
  endfacet
  facet normal -0.544637 0.838672 0
    outer loop
      vertex -5.87785 8.09017 5
      vertex -5 8.66025 -5
      vertex -5.87785 8.09017 -5
    endloop
  endfacet
  facet normal -0.0523352 0.99863 0
    outer loop
      vertex 0 10 -5
      vertex -1.04528 9.94522 5
      vertex 0 10 5
    endloop
  endfacet
  facet normal -0.0523352 0.99863 0
    outer loop
      vertex -1.04528 9.94522 5
      vertex 0 10 -5
      vertex -1.04528 9.94522 -5
    endloop
  endfacet
  facet normal 0.99863 -0.0523352 0
    outer loop
      vertex 9.94522 -1.04528 5
      vertex 10 0 -5
      vertex 10 0 5
    endloop
  endfacet
  facet normal 0.99863 -0.0523352 0
    outer loop
      vertex 10 0 -5
      vertex 9.94522 -1.04528 5
      vertex 9.94522 -1.04528 -5
    endloop
  endfacet
  facet normal 0.0523352 -0.99863 0
    outer loop
      vertex 0 -10 -5
      vertex 1.04528 -9.94522 5
      vertex 0 -10 5
    endloop
  endfacet
  facet normal 0.0523352 -0.99863 0
    outer loop
      vertex 1.04528 -9.94522 5
      vertex 0 -10 -5
      vertex 1.04528 -9.94522 -5
    endloop
  endfacet
  facet normal 0.258828 -0.965923 0
    outer loop
      vertex 2.07912 -9.78148 -5
      vertex 3.09017 -9.51056 5
      vertex 2.07912 -9.78148 5
    endloop
  endfacet
  facet normal 0.258828 -0.965923 0
    outer loop
      vertex 3.09017 -9.51056 5
      vertex 2.07912 -9.78148 -5
      vertex 3.09017 -9.51056 -5
    endloop
  endfacet
  facet normal 0.629316 -0.777149 0
    outer loop
      vertex 5.87785 -8.09017 -5
      vertex 6.69131 -7.43145 5
      vertex 5.87785 -8.09017 5
    endloop
  endfacet
  facet normal 0.629316 -0.777149 0
    outer loop
      vertex 6.69131 -7.43145 5
      vertex 5.87785 -8.09017 -5
      vertex 6.69131 -7.43145 -5
    endloop
  endfacet
  facet normal 0.453991 -0.891006 0
    outer loop
      vertex 4.06737 -9.13545 -5
      vertex 5 -8.66025 5
      vertex 4.06737 -9.13545 5
    endloop
  endfacet
  facet normal 0.453991 -0.891006 0
    outer loop
      vertex 5 -8.66025 5
      vertex 4.06737 -9.13545 -5
      vertex 5 -8.66025 -5
    endloop
  endfacet
  facet normal 0.777149 -0.629316 0
    outer loop
      vertex 7.43145 -6.69131 5
      vertex 8.09017 -5.87785 -5
      vertex 8.09017 -5.87785 5
    endloop
  endfacet
  facet normal 0.777149 -0.629316 0
    outer loop
      vertex 8.09017 -5.87785 -5
      vertex 7.43145 -6.69131 5
      vertex 7.43145 -6.69131 -5
    endloop
  endfacet
  facet normal 0.891006 -0.453991 0
    outer loop
      vertex 8.66025 -5 5
      vertex 9.13545 -4.06737 -5
      vertex 9.13545 -4.06737 5
    endloop
  endfacet
  facet normal 0.891006 -0.453991 0
    outer loop
      vertex 9.13545 -4.06737 -5
      vertex 8.66025 -5 5
      vertex 8.66025 -5 -5
    endloop
  endfacet
  facet normal -0.707107 -0.707107 0
    outer loop
      vertex -6.69131 -7.43145 -5
      vertex -7.43145 -6.69131 5
      vertex -7.43145 -6.69131 -5
    endloop
  endfacet
  facet normal -0.707107 -0.707107 0
    outer loop
      vertex -7.43145 -6.69131 5
      vertex -6.69131 -7.43145 -5
      vertex -6.69131 -7.43145 5
    endloop
  endfacet
  facet normal -0.544637 -0.838672 0
    outer loop
      vertex -5.87785 -8.09017 -5
      vertex -5 -8.66025 5
      vertex -5.87785 -8.09017 5
    endloop
  endfacet
  facet normal -0.544637 -0.838672 -0
    outer loop
      vertex -5 -8.66025 5
      vertex -5.87785 -8.09017 -5
      vertex -5 -8.66025 -5
    endloop
  endfacet
  facet normal -0.358366 -0.933581 0
    outer loop
      vertex -4.06737 -9.13545 -5
      vertex -3.09017 -9.51056 5
      vertex -4.06737 -9.13545 5
    endloop
  endfacet
  facet normal -0.358366 -0.933581 -0
    outer loop
      vertex -3.09017 -9.51056 5
      vertex -4.06737 -9.13545 -5
      vertex -3.09017 -9.51056 -5
    endloop
  endfacet
  facet normal -0.156431 -0.987689 0
    outer loop
      vertex -2.07912 -9.78148 -5
      vertex -1.04528 -9.94522 5
      vertex -2.07912 -9.78148 5
    endloop
  endfacet
  facet normal -0.156431 -0.987689 -0
    outer loop
      vertex -1.04528 -9.94522 5
      vertex -2.07912 -9.78148 -5
      vertex -1.04528 -9.94522 -5
    endloop
  endfacet
  facet normal -0.933581 -0.358366 0
    outer loop
      vertex -9.13545 -4.06737 -5
      vertex -9.51056 -3.09017 5
      vertex -9.51056 -3.09017 -5
    endloop
  endfacet
  facet normal -0.933581 -0.358366 0
    outer loop
      vertex -9.51056 -3.09017 5
      vertex -9.13545 -4.06737 -5
      vertex -9.13545 -4.06737 5
    endloop
  endfacet
  facet normal -0.838672 -0.544637 0
    outer loop
      vertex -8.09017 -5.87785 -5
      vertex -8.66025 -5 5
      vertex -8.66025 -5 -5
    endloop
  endfacet
  facet normal -0.838672 -0.544637 0
    outer loop
      vertex -8.66025 -5 5
      vertex -8.09017 -5.87785 -5
      vertex -8.09017 -5.87785 5
    endloop
  endfacet
  facet normal -0.965923 -0.258828 0
    outer loop
      vertex -9.51056 -3.09017 -5
      vertex -9.78148 -2.07912 5
      vertex -9.78148 -2.07912 -5
    endloop
  endfacet
  facet normal -0.965923 -0.258828 0
    outer loop
      vertex -9.78148 -2.07912 5
      vertex -9.51056 -3.09017 -5
      vertex -9.51056 -3.09017 5
    endloop
  endfacet
  facet normal -0.99863 -0.0523352 0
    outer loop
      vertex -9.94522 -1.04528 -5
      vertex -10 0 5
      vertex -10 0 -5
    endloop
  endfacet
  facet normal -0.99863 -0.0523352 0
    outer loop
      vertex -10 0 5
      vertex -9.94522 -1.04528 -5
      vertex -9.94522 -1.04528 5
    endloop
  endfacet
  facet normal 0.156431 -0.987689 0
    outer loop
      vertex 1.04528 -9.94522 -5
      vertex 2.07912 -9.78148 5
      vertex 1.04528 -9.94522 5
    endloop
  endfacet
  facet normal 0.156431 -0.987689 0
    outer loop
      vertex 2.07912 -9.78148 5
      vertex 1.04528 -9.94522 -5
      vertex 2.07912 -9.78148 -5
    endloop
  endfacet
  facet normal 0.358366 -0.933581 0
    outer loop
      vertex 3.09017 -9.51056 -5
      vertex 4.06737 -9.13545 5
      vertex 3.09017 -9.51056 5
    endloop
  endfacet
  facet normal 0.358366 -0.933581 0
    outer loop
      vertex 4.06737 -9.13545 5
      vertex 3.09017 -9.51056 -5
      vertex 4.06737 -9.13545 -5
    endloop
  endfacet
  facet normal 0.707107 -0.707107 0
    outer loop
      vertex 6.69131 -7.43145 5
      vertex 7.43145 -6.69131 -5
      vertex 7.43145 -6.69131 5
    endloop
  endfacet
  facet normal 0.707107 -0.707107 0
    outer loop
      vertex 7.43145 -6.69131 -5
      vertex 6.69131 -7.43145 5
      vertex 6.69131 -7.43145 -5
    endloop
  endfacet
  facet normal 0.544637 -0.838672 0
    outer loop
      vertex 5 -8.66025 -5
      vertex 5.87785 -8.09017 5
      vertex 5 -8.66025 5
    endloop
  endfacet
  facet normal 0.544637 -0.838672 0
    outer loop
      vertex 5.87785 -8.09017 5
      vertex 5 -8.66025 -5
      vertex 5.87785 -8.09017 -5
    endloop
  endfacet
  facet normal 0.838672 -0.544637 0
    outer loop
      vertex 8.09017 -5.87785 5
      vertex 8.66025 -5 -5
      vertex 8.66025 -5 5
    endloop
  endfacet
  facet normal 0.838672 -0.544637 0
    outer loop
      vertex 8.66025 -5 -5
      vertex 8.09017 -5.87785 5
      vertex 8.09017 -5.87785 -5
    endloop
  endfacet
  facet normal 0.933581 -0.358366 0
    outer loop
      vertex 9.13545 -4.06737 5
      vertex 9.51056 -3.09017 -5
      vertex 9.51056 -3.09017 5
    endloop
  endfacet
  facet normal 0.933581 -0.358366 0
    outer loop
      vertex 9.51056 -3.09017 -5
      vertex 9.13545 -4.06737 5
      vertex 9.13545 -4.06737 -5
    endloop
  endfacet
  facet normal 0.987689 -0.156431 0
    outer loop
      vertex 9.78148 -2.07912 5
      vertex 9.94522 -1.04528 -5
      vertex 9.94522 -1.04528 5
    endloop
  endfacet
  facet normal 0.987689 -0.156431 0
    outer loop
      vertex 9.94522 -1.04528 -5
      vertex 9.78148 -2.07912 5
      vertex 9.78148 -2.07912 -5
    endloop
  endfacet
  facet normal 0.965923 -0.258828 0
    outer loop
      vertex 9.51056 -3.09017 5
      vertex 9.78148 -2.07912 -5
      vertex 9.78148 -2.07912 5
    endloop
  endfacet
  facet normal 0.965923 -0.258828 0
    outer loop
      vertex 9.78148 -2.07912 -5
      vertex 9.51056 -3.09017 5
      vertex 9.51056 -3.09017 -5
    endloop
  endfacet
  facet normal -0.629316 -0.777149 0
    outer loop
      vertex -6.69131 -7.43145 -5
      vertex -5.87785 -8.09017 5
      vertex -6.69131 -7.43145 5
    endloop
  endfacet
  facet normal -0.629316 -0.777149 -0
    outer loop
      vertex -5.87785 -8.09017 5
      vertex -6.69131 -7.43145 -5
      vertex -5.87785 -8.09017 -5
    endloop
  endfacet
  facet normal -0.453991 -0.891006 0
    outer loop
      vertex -5 -8.66025 -5
      vertex -4.06737 -9.13545 5
      vertex -5 -8.66025 5
    endloop
  endfacet
  facet normal -0.453991 -0.891006 -0
    outer loop
      vertex -4.06737 -9.13545 5
      vertex -5 -8.66025 -5
      vertex -4.06737 -9.13545 -5
    endloop
  endfacet
  facet normal -0.258828 -0.965923 0
    outer loop
      vertex -3.09017 -9.51056 -5
      vertex -2.07912 -9.78148 5
      vertex -3.09017 -9.51056 5
    endloop
  endfacet
  facet normal -0.258828 -0.965923 -0
    outer loop
      vertex -2.07912 -9.78148 5
      vertex -3.09017 -9.51056 -5
      vertex -2.07912 -9.78148 -5
    endloop
  endfacet
  facet normal -0.891006 -0.453991 0
    outer loop
      vertex -8.66025 -5 -5
      vertex -9.13545 -4.06737 5
      vertex -9.13545 -4.06737 -5
    endloop
  endfacet
  facet normal -0.891006 -0.453991 0
    outer loop
      vertex -9.13545 -4.06737 5
      vertex -8.66025 -5 -5
      vertex -8.66025 -5 5
    endloop
  endfacet
  facet normal -0.987689 -0.156431 0
    outer loop
      vertex -9.78148 -2.07912 -5
      vertex -9.94522 -1.04528 5
      vertex -9.94522 -1.04528 -5
    endloop
  endfacet
  facet normal -0.987689 -0.156431 0
    outer loop
      vertex -9.94522 -1.04528 5
      vertex -9.78148 -2.07912 -5
      vertex -9.78148 -2.07912 5
    endloop
  endfacet
  facet normal 0 0 1
    outer loop
      vertex 5.75 0 5
      vertex 10 0 5
      vertex 9.94522 1.04528 5
    endloop
  endfacet
  facet normal 0 0 1
    outer loop
      vertex 5.75 0 5
      vertex 9.94522 1.04528 5
      vertex 9.78148 2.07912 5
    endloop
  endfacet
  facet normal 0 0 1
    outer loop
      vertex 10 0 5
      vertex 5.75 0 5
      vertex 9.94522 -1.04528 5
    endloop
  endfacet
  facet normal 0 0 1
    outer loop
      vertex 5.75 0 5
      vertex 9.78148 2.07912 5
      vertex 9.51056 3.09017 5
    endloop
  endfacet
  facet normal 0 0 1
    outer loop
      vertex 9.94522 -1.04528 5
      vertex 5.75 0 5
      vertex 9.78148 -2.07912 5
    endloop
  endfacet
  facet normal 0 0 1
    outer loop
      vertex 5.75 0 5
      vertex 9.51056 3.09017 5
      vertex 9.13545 4.06737 5
    endloop
  endfacet
  facet normal 0 0 1
    outer loop
      vertex 9.78148 -2.07912 5
      vertex 5.75 0 5
      vertex 9.51056 -3.09017 5
    endloop
  endfacet
  facet normal 0 0 1
    outer loop
      vertex 5.75 0 5
      vertex 9.13545 4.06737 5
      vertex 8.66025 5 5
    endloop
  endfacet
  facet normal 0 0 1
    outer loop
      vertex 9.51056 -3.09017 5
      vertex 5.75 0 5
      vertex 9.13545 -4.06737 5
    endloop
  endfacet
  facet normal 0 0 1
    outer loop
      vertex 2.875 4.97965 5
      vertex 8.66025 5 5
      vertex 8.09017 5.87785 5
    endloop
  endfacet
  facet normal 0 0 1
    outer loop
      vertex 9.13545 -4.06737 5
      vertex 5.75 0 5
      vertex 8.66025 -5 5
    endloop
  endfacet
  facet normal 0 0 1
    outer loop
      vertex 2.875 4.97965 5
      vertex 8.09017 5.87785 5
      vertex 7.43145 6.69131 5
    endloop
  endfacet
  facet normal -0 0 1
    outer loop
      vertex 2.875 -4.97965 5
      vertex 8.66025 -5 5
      vertex 5.75 0 5
    endloop
  endfacet
  facet normal 0 0 1
    outer loop
      vertex 2.875 4.97965 5
      vertex 7.43145 6.69131 5
      vertex 6.69131 7.43145 5
    endloop
  endfacet
  facet normal 0 0 1
    outer loop
      vertex 8.66025 -5 5
      vertex 2.875 -4.97965 5
      vertex 8.09017 -5.87785 5
    endloop
  endfacet
  facet normal 0 0 1
    outer loop
      vertex 2.875 4.97965 5
      vertex 6.69131 7.43145 5
      vertex 5.87785 8.09017 5
    endloop
  endfacet
  facet normal 0 0 1
    outer loop
      vertex 8.09017 -5.87785 5
      vertex 2.875 -4.97965 5
      vertex 7.43145 -6.69131 5
    endloop
  endfacet
  facet normal 0 0 1
    outer loop
      vertex 7.43145 -6.69131 5
      vertex 2.875 -4.97965 5
      vertex 6.69131 -7.43145 5
    endloop
  endfacet
  facet normal 0 0 1
    outer loop
      vertex 2.875 4.97965 5
      vertex 5.87785 8.09017 5
      vertex 5 8.66025 5
    endloop
  endfacet
  facet normal 0 0 1
    outer loop
      vertex 2.875 4.97965 5
      vertex 5 8.66025 5
      vertex 4.06737 9.13545 5
    endloop
  endfacet
  facet normal 0 0 1
    outer loop
      vertex 2.875 4.97965 5
      vertex 4.06737 9.13545 5
      vertex 3.09017 9.51056 5
    endloop
  endfacet
  facet normal 0 0 1
    outer loop
      vertex 8.66025 5 5
      vertex 2.875 4.97965 5
      vertex 5.75 0 5
    endloop
  endfacet
  facet normal 0 0 1
    outer loop
      vertex 2.07912 9.78148 5
      vertex 2.875 4.97965 5
      vertex 3.09017 9.51056 5
    endloop
  endfacet
  facet normal 0 0 1
    outer loop
      vertex 1.04528 9.94522 5
      vertex 2.875 4.97965 5
      vertex 2.07912 9.78148 5
    endloop
  endfacet
  facet normal 0 0 1
    outer loop
      vertex 0 10 5
      vertex 2.875 4.97965 5
      vertex 1.04528 9.94522 5
    endloop
  endfacet
  facet normal 0 0 1
    outer loop
      vertex -2.875 4.97965 5
      vertex 0 10 5
      vertex -1.04528 9.94522 5
    endloop
  endfacet
  facet normal 0 0 1
    outer loop
      vertex -2.875 4.97965 5
      vertex -1.04528 9.94522 5
      vertex -2.07912 9.78148 5
    endloop
  endfacet
  facet normal 0 0 1
    outer loop
      vertex 0 10 5
      vertex -2.875 4.97965 5
      vertex 2.875 4.97965 5
    endloop
  endfacet
  facet normal -0 0 1
    outer loop
      vertex -3.09017 9.51056 5
      vertex -2.875 4.97965 5
      vertex -2.07912 9.78148 5
    endloop
  endfacet
  facet normal -0 0 1
    outer loop
      vertex -4.06737 9.13545 5
      vertex -2.875 4.97965 5
      vertex -3.09017 9.51056 5
    endloop
  endfacet
  facet normal -0 0 1
    outer loop
      vertex -5 8.66025 5
      vertex -2.875 4.97965 5
      vertex -4.06737 9.13545 5
    endloop
  endfacet
  facet normal -0 0 1
    outer loop
      vertex -5.87785 8.09017 5
      vertex -2.875 4.97965 5
      vertex -5 8.66025 5
    endloop
  endfacet
  facet normal -0 0 1
    outer loop
      vertex -6.69131 7.43145 5
      vertex -2.875 4.97965 5
      vertex -5.87785 8.09017 5
    endloop
  endfacet
  facet normal 0 0 1
    outer loop
      vertex 6.69131 -7.43145 5
      vertex 2.875 -4.97965 5
      vertex 5.87785 -8.09017 5
    endloop
  endfacet
  facet normal 0 0 1
    outer loop
      vertex 5.87785 -8.09017 5
      vertex 2.875 -4.97965 5
      vertex 5 -8.66025 5
    endloop
  endfacet
  facet normal 0 0 1
    outer loop
      vertex 5 -8.66025 5
      vertex 2.875 -4.97965 5
      vertex 4.06737 -9.13545 5
    endloop
  endfacet
  facet normal 0 0 1
    outer loop
      vertex 4.06737 -9.13545 5
      vertex 2.875 -4.97965 5
      vertex 3.09017 -9.51056 5
    endloop
  endfacet
  facet normal 0 0 1
    outer loop
      vertex 2.875 -4.97965 5
      vertex 2.07912 -9.78148 5
      vertex 3.09017 -9.51056 5
    endloop
  endfacet
  facet normal 0 0 1
    outer loop
      vertex 2.875 -4.97965 5
      vertex 1.04528 -9.94522 5
      vertex 2.07912 -9.78148 5
    endloop
  endfacet
  facet normal 0 0 1
    outer loop
      vertex 2.875 -4.97965 5
      vertex 0 -10 5
      vertex 1.04528 -9.94522 5
    endloop
  endfacet
  facet normal -0 0 1
    outer loop
      vertex -2.875 -4.97965 5
      vertex 0 -10 5
      vertex 2.875 -4.97965 5
    endloop
  endfacet
  facet normal 0 0 1
    outer loop
      vertex 0 -10 5
      vertex -2.875 -4.97965 5
      vertex -1.04528 -9.94522 5
    endloop
  endfacet
  facet normal 0 0 1
    outer loop
      vertex -1.04528 -9.94522 5
      vertex -2.875 -4.97965 5
      vertex -2.07912 -9.78148 5
    endloop
  endfacet
  facet normal 0 0 1
    outer loop
      vertex -2.875 -4.97965 5
      vertex -3.09017 -9.51056 5
      vertex -2.07912 -9.78148 5
    endloop
  endfacet
  facet normal 0 0 1
    outer loop
      vertex -2.875 -4.97965 5
      vertex -4.06737 -9.13545 5
      vertex -3.09017 -9.51056 5
    endloop
  endfacet
  facet normal 0 0 1
    outer loop
      vertex -2.875 -4.97965 5
      vertex -5 -8.66025 5
      vertex -4.06737 -9.13545 5
    endloop
  endfacet
  facet normal 0 0 1
    outer loop
      vertex -8.66025 -5 5
      vertex -2.875 -4.97965 5
      vertex -5.75 0 5
    endloop
  endfacet
  facet normal 0 0 1
    outer loop
      vertex -2.875 -4.97965 5
      vertex -5.87785 -8.09017 5
      vertex -5 -8.66025 5
    endloop
  endfacet
  facet normal -0 0 1
    outer loop
      vertex -7.43145 6.69131 5
      vertex -2.875 4.97965 5
      vertex -6.69131 7.43145 5
    endloop
  endfacet
  facet normal -0 0 1
    outer loop
      vertex -8.09017 5.87785 5
      vertex -2.875 4.97965 5
      vertex -7.43145 6.69131 5
    endloop
  endfacet
  facet normal 0 0 1
    outer loop
      vertex -2.875 -4.97965 5
      vertex -6.69131 -7.43145 5
      vertex -5.87785 -8.09017 5
    endloop
  endfacet
  facet normal -0 0 1
    outer loop
      vertex -8.66025 5 5
      vertex -2.875 4.97965 5
      vertex -8.09017 5.87785 5
    endloop
  endfacet
  facet normal 0 0 1
    outer loop
      vertex -2.875 -4.97965 5
      vertex -7.43145 -6.69131 5
      vertex -6.69131 -7.43145 5
    endloop
  endfacet
  facet normal 0 0 1
    outer loop
      vertex -2.875 4.97965 5
      vertex -8.66025 5 5
      vertex -5.75 0 5
    endloop
  endfacet
  facet normal 0 0 1
    outer loop
      vertex -2.875 -4.97965 5
      vertex -8.09017 -5.87785 5
      vertex -7.43145 -6.69131 5
    endloop
  endfacet
  facet normal -0 0 1
    outer loop
      vertex -9.13545 4.06737 5
      vertex -5.75 0 5
      vertex -8.66025 5 5
    endloop
  endfacet
  facet normal 0 0 1
    outer loop
      vertex -2.875 -4.97965 5
      vertex -8.66025 -5 5
      vertex -8.09017 -5.87785 5
    endloop
  endfacet
  facet normal -0 0 1
    outer loop
      vertex -9.51056 3.09017 5
      vertex -5.75 0 5
      vertex -9.13545 4.06737 5
    endloop
  endfacet
  facet normal 0 0 1
    outer loop
      vertex -5.75 0 5
      vertex -9.13545 -4.06737 5
      vertex -8.66025 -5 5
    endloop
  endfacet
  facet normal -0 0 1
    outer loop
      vertex -9.78148 2.07912 5
      vertex -5.75 0 5
      vertex -9.51056 3.09017 5
    endloop
  endfacet
  facet normal 0 0 1
    outer loop
      vertex -5.75 0 5
      vertex -9.51056 -3.09017 5
      vertex -9.13545 -4.06737 5
    endloop
  endfacet
  facet normal -0 0 1
    outer loop
      vertex -9.94522 1.04528 5
      vertex -5.75 0 5
      vertex -9.78148 2.07912 5
    endloop
  endfacet
  facet normal 0 0 1
    outer loop
      vertex -5.75 0 5
      vertex -9.78148 -2.07912 5
      vertex -9.51056 -3.09017 5
    endloop
  endfacet
  facet normal 0 0 1
    outer loop
      vertex -10 0 5
      vertex -5.75 0 5
      vertex -9.94522 1.04528 5
    endloop
  endfacet
  facet normal 0 0 1
    outer loop
      vertex -5.75 0 5
      vertex -9.94522 -1.04528 5
      vertex -9.78148 -2.07912 5
    endloop
  endfacet
  facet normal 0 0 1
    outer loop
      vertex -5.75 0 5
      vertex -10 0 5
      vertex -9.94522 -1.04528 5
    endloop
  endfacet
  facet normal -0.994521 -0.104536 0
    outer loop
      vertex 3.15 0 -5
      vertex 3.08116 0.654922 0
      vertex 3.08116 0.654922 -5
    endloop
  endfacet
  facet normal -0.994521 -0.104536 0
    outer loop
      vertex 3.08116 0.654922 0
      vertex 3.15 0 -5
      vertex 3.15 0 0
    endloop
  endfacet
  facet normal 0.994521 -0.104536 0
    outer loop
      vertex -3.15 0 0
      vertex -3.08116 0.654922 -5
      vertex -3.08116 0.654922 0
    endloop
  endfacet
  facet normal 0.994521 -0.104536 0
    outer loop
      vertex -3.08116 0.654922 -5
      vertex -3.15 0 0
      vertex -3.15 0 -5
    endloop
  endfacet
  facet normal 0 -1 0
    outer loop
      vertex -0.329265 3.13274 -5
      vertex 0.329265 3.13274 0
      vertex -0.329265 3.13274 0
    endloop
  endfacet
  facet normal 0 -1 -0
    outer loop
      vertex 0.329265 3.13274 0
      vertex -0.329265 3.13274 -5
      vertex 0.329265 3.13274 -5
    endloop
  endfacet
  facet normal 0 1 -0
    outer loop
      vertex 0.329265 -3.13274 -5
      vertex -0.329265 -3.13274 0
      vertex 0.329265 -3.13274 0
    endloop
  endfacet
  facet normal 0 1 0
    outer loop
      vertex -0.329265 -3.13274 0
      vertex 0.329265 -3.13274 -5
      vertex -0.329265 -3.13274 -5
    endloop
  endfacet
  facet normal -0.743151 -0.669123 0
    outer loop
      vertex 2.5484 1.85152 -5
      vertex 2.10776 2.34091 0
      vertex 2.10776 2.34091 -5
    endloop
  endfacet
  facet normal -0.743151 -0.669123 0
    outer loop
      vertex 2.10776 2.34091 0
      vertex 2.5484 1.85152 -5
      vertex 2.5484 1.85152 0
    endloop
  endfacet
  facet normal 0.587782 -0.809019 0
    outer loop
      vertex -2.10776 2.34091 -5
      vertex -1.575 2.72798 0
      vertex -2.10776 2.34091 0
    endloop
  endfacet
  facet normal 0.587782 -0.809019 0
    outer loop
      vertex -1.575 2.72798 0
      vertex -2.10776 2.34091 -5
      vertex -1.575 2.72798 -5
    endloop
  endfacet
  facet normal 0.406739 -0.913544 0
    outer loop
      vertex -1.575 2.72798 -5
      vertex -0.973403 2.99583 0
      vertex -1.575 2.72798 0
    endloop
  endfacet
  facet normal 0.406739 -0.913544 0
    outer loop
      vertex -0.973403 2.99583 0
      vertex -1.575 2.72798 -5
      vertex -0.973403 2.99583 -5
    endloop
  endfacet
  facet normal -0.866021 -0.500008 0
    outer loop
      vertex 2.87767 1.28122 -5
      vertex 2.5484 1.85152 0
      vertex 2.5484 1.85152 -5
    endloop
  endfacet
  facet normal -0.866021 -0.500008 0
    outer loop
      vertex 2.5484 1.85152 0
      vertex 2.87767 1.28122 -5
      vertex 2.87767 1.28122 0
    endloop
  endfacet
  facet normal -0.951059 -0.309008 0
    outer loop
      vertex 3.08116 0.654922 -5
      vertex 2.87767 1.28122 0
      vertex 2.87767 1.28122 -5
    endloop
  endfacet
  facet normal -0.951059 -0.309008 0
    outer loop
      vertex 2.87767 1.28122 0
      vertex 3.08116 0.654922 -5
      vertex 3.08116 0.654922 0
    endloop
  endfacet
  facet normal -0.406739 -0.913544 0
    outer loop
      vertex 0.973403 2.99583 -5
      vertex 1.575 2.72798 0
      vertex 0.973403 2.99583 0
    endloop
  endfacet
  facet normal -0.406739 -0.913544 -0
    outer loop
      vertex 1.575 2.72798 0
      vertex 0.973403 2.99583 -5
      vertex 1.575 2.72798 -5
    endloop
  endfacet
  facet normal -0.207903 -0.978149 0
    outer loop
      vertex 0.329265 3.13274 -5
      vertex 0.973403 2.99583 0
      vertex 0.329265 3.13274 0
    endloop
  endfacet
  facet normal -0.207903 -0.978149 -0
    outer loop
      vertex 0.973403 2.99583 0
      vertex 0.329265 3.13274 -5
      vertex 0.973403 2.99583 -5
    endloop
  endfacet
  facet normal -0.587782 -0.809019 0
    outer loop
      vertex 1.575 2.72798 -5
      vertex 2.10776 2.34091 0
      vertex 1.575 2.72798 0
    endloop
  endfacet
  facet normal -0.587782 -0.809019 -0
    outer loop
      vertex 2.10776 2.34091 0
      vertex 1.575 2.72798 -5
      vertex 2.10776 2.34091 -5
    endloop
  endfacet
  facet normal 0.866021 -0.500008 0
    outer loop
      vertex -2.87767 1.28122 0
      vertex -2.5484 1.85152 -5
      vertex -2.5484 1.85152 0
    endloop
  endfacet
  facet normal 0.866021 -0.500008 0
    outer loop
      vertex -2.5484 1.85152 -5
      vertex -2.87767 1.28122 0
      vertex -2.87767 1.28122 -5
    endloop
  endfacet
  facet normal 0.743151 -0.669123 0
    outer loop
      vertex -2.5484 1.85152 0
      vertex -2.10776 2.34091 -5
      vertex -2.10776 2.34091 0
    endloop
  endfacet
  facet normal 0.743151 -0.669123 0
    outer loop
      vertex -2.10776 2.34091 -5
      vertex -2.5484 1.85152 0
      vertex -2.5484 1.85152 -5
    endloop
  endfacet
  facet normal 0.951059 -0.309008 0
    outer loop
      vertex -3.08116 0.654922 0
      vertex -2.87767 1.28122 -5
      vertex -2.87767 1.28122 0
    endloop
  endfacet
  facet normal 0.951059 -0.309008 0
    outer loop
      vertex -2.87767 1.28122 -5
      vertex -3.08116 0.654922 0
      vertex -3.08116 0.654922 -5
    endloop
  endfacet
  facet normal 0 0 1
    outer loop
      vertex 5.75 0 0
      vertex 3.08116 0.654922 0
      vertex 3.15 0 0
    endloop
  endfacet
  facet normal 0 0 1
    outer loop
      vertex 5.75 0 0
      vertex 2.87767 1.28122 0
      vertex 3.08116 0.654922 0
    endloop
  endfacet
  facet normal 0 0 1
    outer loop
      vertex 2.875 4.97965 0
      vertex 2.87767 1.28122 0
      vertex 5.75 0 0
    endloop
  endfacet
  facet normal 0 0 1
    outer loop
      vertex 2.875 4.97965 0
      vertex 2.5484 1.85152 0
      vertex 2.87767 1.28122 0
    endloop
  endfacet
  facet normal 0 0 1
    outer loop
      vertex 2.875 4.97965 0
      vertex 2.10776 2.34091 0
      vertex 2.5484 1.85152 0
    endloop
  endfacet
  facet normal 0 0 1
    outer loop
      vertex 2.875 4.97965 0
      vertex 1.575 2.72798 0
      vertex 2.10776 2.34091 0
    endloop
  endfacet
  facet normal 0 0 1
    outer loop
      vertex 2.875 4.97965 0
      vertex 0.973403 2.99583 0
      vertex 1.575 2.72798 0
    endloop
  endfacet
  facet normal 0 0 1
    outer loop
      vertex 2.875 4.97965 0
      vertex 0.329265 3.13274 0
      vertex 0.973403 2.99583 0
    endloop
  endfacet
  facet normal 0 0 1
    outer loop
      vertex 2.875 4.97965 0
      vertex -0.329265 3.13274 0
      vertex 0.329265 3.13274 0
    endloop
  endfacet
  facet normal -0 0 1
    outer loop
      vertex -2.875 4.97965 0
      vertex -0.329265 3.13274 0
      vertex 2.875 4.97965 0
    endloop
  endfacet
  facet normal 0 0 1
    outer loop
      vertex -0.329265 3.13274 0
      vertex -2.875 4.97965 0
      vertex -0.973403 2.99583 0
    endloop
  endfacet
  facet normal 0 0 1
    outer loop
      vertex -0.973403 2.99583 0
      vertex -2.875 4.97965 0
      vertex -1.575 2.72798 0
    endloop
  endfacet
  facet normal 0 0 1
    outer loop
      vertex -2.875 4.97965 0
      vertex -2.10776 2.34091 0
      vertex -1.575 2.72798 0
    endloop
  endfacet
  facet normal 0 0 1
    outer loop
      vertex -2.875 4.97965 0
      vertex -2.5484 1.85152 0
      vertex -2.10776 2.34091 0
    endloop
  endfacet
  facet normal 0 0 1
    outer loop
      vertex -2.875 4.97965 0
      vertex -2.87767 1.28122 0
      vertex -2.5484 1.85152 0
    endloop
  endfacet
  facet normal 0 0 1
    outer loop
      vertex -5.75 0 0
      vertex -2.87767 1.28122 0
      vertex -2.875 4.97965 0
    endloop
  endfacet
  facet normal 0 0 1
    outer loop
      vertex -2.87767 1.28122 0
      vertex -5.75 0 0
      vertex -3.08116 0.654922 0
    endloop
  endfacet
  facet normal 0 0 1
    outer loop
      vertex -3.08116 0.654922 0
      vertex -5.75 0 0
      vertex -3.15 0 0
    endloop
  endfacet
  facet normal 0 0 1
    outer loop
      vertex 3.08116 -0.654922 0
      vertex 5.75 0 0
      vertex 3.15 0 0
    endloop
  endfacet
  facet normal 0 0 1
    outer loop
      vertex 2.87767 -1.28122 0
      vertex 5.75 0 0
      vertex 3.08116 -0.654922 0
    endloop
  endfacet
  facet normal -0 0 1
    outer loop
      vertex 2.87767 -1.28122 0
      vertex 2.875 -4.97965 0
      vertex 5.75 0 0
    endloop
  endfacet
  facet normal -0 0 1
    outer loop
      vertex 2.5484 -1.85152 0
      vertex 2.875 -4.97965 0
      vertex 2.87767 -1.28122 0
    endloop
  endfacet
  facet normal -0 0 1
    outer loop
      vertex 2.10776 -2.34091 0
      vertex 2.875 -4.97965 0
      vertex 2.5484 -1.85152 0
    endloop
  endfacet
  facet normal -0 0 1
    outer loop
      vertex 1.575 -2.72798 0
      vertex 2.875 -4.97965 0
      vertex 2.10776 -2.34091 0
    endloop
  endfacet
  facet normal -0 0 1
    outer loop
      vertex 0.973403 -2.99583 0
      vertex 2.875 -4.97965 0
      vertex 1.575 -2.72798 0
    endloop
  endfacet
  facet normal -0 0 1
    outer loop
      vertex 0.329265 -3.13274 0
      vertex 2.875 -4.97965 0
      vertex 0.973403 -2.99583 0
    endloop
  endfacet
  facet normal -0 0 1
    outer loop
      vertex -0.329265 -3.13274 0
      vertex 2.875 -4.97965 0
      vertex 0.329265 -3.13274 0
    endloop
  endfacet
  facet normal 0 0 1
    outer loop
      vertex -2.875 -4.97965 0
      vertex -0.329265 -3.13274 0
      vertex -0.973403 -2.99583 0
    endloop
  endfacet
  facet normal 0 0 1
    outer loop
      vertex -2.875 -4.97965 0
      vertex -0.973403 -2.99583 0
      vertex -1.575 -2.72798 0
    endloop
  endfacet
  facet normal 0 0 1
    outer loop
      vertex -0.329265 -3.13274 0
      vertex -2.875 -4.97965 0
      vertex 2.875 -4.97965 0
    endloop
  endfacet
  facet normal 0 0 1
    outer loop
      vertex -2.10776 -2.34091 0
      vertex -2.875 -4.97965 0
      vertex -1.575 -2.72798 0
    endloop
  endfacet
  facet normal 0 0 1
    outer loop
      vertex -2.5484 -1.85152 0
      vertex -2.875 -4.97965 0
      vertex -2.10776 -2.34091 0
    endloop
  endfacet
  facet normal 0 0 1
    outer loop
      vertex -2.87767 -1.28122 0
      vertex -2.875 -4.97965 0
      vertex -2.5484 -1.85152 0
    endloop
  endfacet
  facet normal 0 0 1
    outer loop
      vertex -5.75 0 0
      vertex -2.87767 -1.28122 0
      vertex -3.08116 -0.654922 0
    endloop
  endfacet
  facet normal -0 0 1
    outer loop
      vertex -5.75 0 0
      vertex -3.08116 -0.654922 0
      vertex -3.15 0 0
    endloop
  endfacet
  facet normal 0 0 1
    outer loop
      vertex -2.87767 -1.28122 0
      vertex -5.75 0 0
      vertex -2.875 -4.97965 0
    endloop
  endfacet
  facet normal 0.207903 -0.978149 0
    outer loop
      vertex -0.973403 2.99583 -5
      vertex -0.329265 3.13274 0
      vertex -0.973403 2.99583 0
    endloop
  endfacet
  facet normal 0.207903 -0.978149 0
    outer loop
      vertex -0.329265 3.13274 0
      vertex -0.973403 2.99583 -5
      vertex -0.329265 3.13274 -5
    endloop
  endfacet
  facet normal -0.994521 0.104536 0
    outer loop
      vertex 3.08116 -0.654922 -5
      vertex 3.15 0 0
      vertex 3.15 0 -5
    endloop
  endfacet
  facet normal -0.994521 0.104536 0
    outer loop
      vertex 3.15 0 0
      vertex 3.08116 -0.654922 -5
      vertex 3.08116 -0.654922 0
    endloop
  endfacet
  facet normal -0.743151 0.669123 0
    outer loop
      vertex 2.10776 -2.34091 -5
      vertex 2.5484 -1.85152 0
      vertex 2.5484 -1.85152 -5
    endloop
  endfacet
  facet normal -0.743151 0.669123 0
    outer loop
      vertex 2.5484 -1.85152 0
      vertex 2.10776 -2.34091 -5
      vertex 2.10776 -2.34091 0
    endloop
  endfacet
  facet normal -0.951059 0.309008 0
    outer loop
      vertex 2.87767 -1.28122 -5
      vertex 3.08116 -0.654922 0
      vertex 3.08116 -0.654922 -5
    endloop
  endfacet
  facet normal -0.951059 0.309008 0
    outer loop
      vertex 3.08116 -0.654922 0
      vertex 2.87767 -1.28122 -5
      vertex 2.87767 -1.28122 0
    endloop
  endfacet
  facet normal -0.866021 0.500008 0
    outer loop
      vertex 2.5484 -1.85152 -5
      vertex 2.87767 -1.28122 0
      vertex 2.87767 -1.28122 -5
    endloop
  endfacet
  facet normal -0.866021 0.500008 0
    outer loop
      vertex 2.87767 -1.28122 0
      vertex 2.5484 -1.85152 -5
      vertex 2.5484 -1.85152 0
    endloop
  endfacet
  facet normal 0.587782 0.809019 -0
    outer loop
      vertex -1.575 -2.72798 -5
      vertex -2.10776 -2.34091 0
      vertex -1.575 -2.72798 0
    endloop
  endfacet
  facet normal 0.587782 0.809019 0
    outer loop
      vertex -2.10776 -2.34091 0
      vertex -1.575 -2.72798 -5
      vertex -2.10776 -2.34091 -5
    endloop
  endfacet
  facet normal 0.866021 0.500008 0
    outer loop
      vertex -2.5484 -1.85152 0
      vertex -2.87767 -1.28122 -5
      vertex -2.87767 -1.28122 0
    endloop
  endfacet
  facet normal 0.866021 0.500008 0
    outer loop
      vertex -2.87767 -1.28122 -5
      vertex -2.5484 -1.85152 0
      vertex -2.5484 -1.85152 -5
    endloop
  endfacet
  facet normal -0.587782 0.809019 0
    outer loop
      vertex 2.10776 -2.34091 -5
      vertex 1.575 -2.72798 0
      vertex 2.10776 -2.34091 0
    endloop
  endfacet
  facet normal -0.587782 0.809019 0
    outer loop
      vertex 1.575 -2.72798 0
      vertex 2.10776 -2.34091 -5
      vertex 1.575 -2.72798 -5
    endloop
  endfacet
  facet normal 0.207903 0.978149 -0
    outer loop
      vertex -0.329265 -3.13274 -5
      vertex -0.973403 -2.99583 0
      vertex -0.329265 -3.13274 0
    endloop
  endfacet
  facet normal 0.207903 0.978149 0
    outer loop
      vertex -0.973403 -2.99583 0
      vertex -0.329265 -3.13274 -5
      vertex -0.973403 -2.99583 -5
    endloop
  endfacet
  facet normal 0.406739 0.913544 -0
    outer loop
      vertex -0.973403 -2.99583 -5
      vertex -1.575 -2.72798 0
      vertex -0.973403 -2.99583 0
    endloop
  endfacet
  facet normal 0.406739 0.913544 0
    outer loop
      vertex -1.575 -2.72798 0
      vertex -0.973403 -2.99583 -5
      vertex -1.575 -2.72798 -5
    endloop
  endfacet
  facet normal 0.743151 0.669123 0
    outer loop
      vertex -2.10776 -2.34091 0
      vertex -2.5484 -1.85152 -5
      vertex -2.5484 -1.85152 0
    endloop
  endfacet
  facet normal 0.743151 0.669123 0
    outer loop
      vertex -2.5484 -1.85152 -5
      vertex -2.10776 -2.34091 0
      vertex -2.10776 -2.34091 -5
    endloop
  endfacet
  facet normal 0.951059 0.309008 0
    outer loop
      vertex -2.87767 -1.28122 0
      vertex -3.08116 -0.654922 -5
      vertex -3.08116 -0.654922 0
    endloop
  endfacet
  facet normal 0.951059 0.309008 0
    outer loop
      vertex -3.08116 -0.654922 -5
      vertex -2.87767 -1.28122 0
      vertex -2.87767 -1.28122 -5
    endloop
  endfacet
  facet normal 0.994521 0.104536 0
    outer loop
      vertex -3.08116 -0.654922 0
      vertex -3.15 0 -5
      vertex -3.15 0 0
    endloop
  endfacet
  facet normal 0.994521 0.104536 0
    outer loop
      vertex -3.15 0 -5
      vertex -3.08116 -0.654922 0
      vertex -3.08116 -0.654922 -5
    endloop
  endfacet
  facet normal -0.406739 0.913544 0
    outer loop
      vertex 1.575 -2.72798 -5
      vertex 0.973403 -2.99583 0
      vertex 1.575 -2.72798 0
    endloop
  endfacet
  facet normal -0.406739 0.913544 0
    outer loop
      vertex 0.973403 -2.99583 0
      vertex 1.575 -2.72798 -5
      vertex 0.973403 -2.99583 -5
    endloop
  endfacet
  facet normal -0.207903 0.978149 0
    outer loop
      vertex 0.973403 -2.99583 -5
      vertex 0.329265 -3.13274 0
      vertex 0.973403 -2.99583 0
    endloop
  endfacet
  facet normal -0.207903 0.978149 0
    outer loop
      vertex 0.329265 -3.13274 0
      vertex 0.973403 -2.99583 -5
      vertex 0.329265 -3.13274 -5
    endloop
  endfacet
  facet normal -0.866026 -0.5 0
    outer loop
      vertex 5.75 0 0
      vertex 2.875 4.97965 5
      vertex 2.875 4.97965 0
    endloop
  endfacet
  facet normal -0.866026 -0.5 0
    outer loop
      vertex 2.875 4.97965 5
      vertex 5.75 0 0
      vertex 5.75 0 5
    endloop
  endfacet
  facet normal 0.866026 -0.5 0
    outer loop
      vertex -5.75 0 5
      vertex -2.875 4.97965 0
      vertex -2.875 4.97965 5
    endloop
  endfacet
  facet normal 0.866026 -0.5 0
    outer loop
      vertex -2.875 4.97965 0
      vertex -5.75 0 5
      vertex -5.75 0 0
    endloop
  endfacet
  facet normal 0 -1 0
    outer loop
      vertex -2.875 4.97965 0
      vertex 2.875 4.97965 5
      vertex -2.875 4.97965 5
    endloop
  endfacet
  facet normal 0 -1 -0
    outer loop
      vertex 2.875 4.97965 5
      vertex -2.875 4.97965 0
      vertex 2.875 4.97965 0
    endloop
  endfacet
  facet normal 0.866026 0.5 0
    outer loop
      vertex -2.875 -4.97965 5
      vertex -5.75 0 0
      vertex -5.75 0 5
    endloop
  endfacet
  facet normal 0.866026 0.5 0
    outer loop
      vertex -5.75 0 0
      vertex -2.875 -4.97965 5
      vertex -2.875 -4.97965 0
    endloop
  endfacet
  facet normal 0 1 -0
    outer loop
      vertex 2.875 -4.97965 0
      vertex -2.875 -4.97965 5
      vertex 2.875 -4.97965 5
    endloop
  endfacet
  facet normal 0 1 0
    outer loop
      vertex -2.875 -4.97965 5
      vertex 2.875 -4.97965 0
      vertex -2.875 -4.97965 0
    endloop
  endfacet
  facet normal -0.866026 0.5 0
    outer loop
      vertex 2.875 -4.97965 0
      vertex 5.75 0 5
      vertex 5.75 0 0
    endloop
  endfacet
  facet normal -0.866026 0.5 0
    outer loop
      vertex 5.75 0 5
      vertex 2.875 -4.97965 0
      vertex 2.875 -4.97965 5
    endloop
  endfacet
endsolid OpenSCAD_Model
